<!-- Generated by IcoMoon.io -->
<svg version="1.1" xmlns="http://www.w3.org/2000/svg" width="1024" height="1024" viewBox="0 0 1024 1024">
<g id="icomoon-ignore">
</g>
<path fill="#f9f9fa" d="M-488-488c660 0 1320 0 2000 0 0 660 0 1320 0 2000-660 0-1320 0-2000 0 0-660 0-1320 0-2000z"></path>
<path fill="#f9f9fa" d="M224.488 101.597c2.633-0.003 5.266-0.006 7.899-0.009 7.22-0.008 14.378-0.010 21.598-0.011 7.766-0.002 15.593-0.009 23.358-0.016 16.99-0.014 33.981-0.020 50.971-0.024 10.621-0.003 21.242-0.007 31.864-0.012 29.47-0.012 58.88-0.022 88.35-0.026 1.878 0 3.756 0 5.724-0.001 1.88 0 3.76 0 5.731-0.001 3.846 0 7.632-0.001 11.478-0.001 1.885 0 3.77 0 5.745-0.001 30.721-0.004 61.381-0.021 92.102-0.106 31.597-0.024 63.133-0.097 94.73-0.098 17.726-0.001 35.39-0.007 53.116-0.025 15.098-0.015 30.135-0.020 45.233-0.012 7.652 0.004 15.365 0.003 23.017-0.011 56.14-0.219 103.012 3.872 145.369 44.027 29.114 30.775 40.736 68.742 40.732 110.235 0.004 2.263 0.007 4.527 0.011 6.886 0.009 6.272 0.014 12.604 0.016 18.876 0.004 6.774 0.013 13.609 0.022 20.383 0.020 16.39 0.030 32.78 0.1 49.232 0.004 7.745 0.010 15.49 0.015 23.235 0.017 25.754 0.093 51.508 0.1 77.261 0.002 6.652 0.004 13.364 0.006 20.016 0 1.643 0.001 3.346 0.001 5.015 0.008 26.86 0.095 53.72 0.127 80.519 0.094 27.618 0.112 55.235 0.115 82.853 0.002 15.491 0.011 30.982 0.097 46.473 0.022 13.221 0.030 26.381 0.020 39.602-0.005 6.733-0.003 13.405 0.017 20.138 0.256 54.993-6.855 98.62-46.016 139.502-23.988 22.977-56.609 36.993-89.868 37.022-2.364 0.004-4.728 0.009-7.129 0.014-2.596 0-5.132 0-7.768-0.001-2.76 0.003-5.521 0.007-8.281 0.011-7.614 0.010-15.228 0.014-22.781 0.016-8.227 0.004-16.392 0.013-24.619 0.022-19.78 0.020-39.622 0.030-59.402 0.1-9.355 0.004-18.649 0.010-28.004 0.015-31.024 0.017-62.109 0.093-93.133 0.1-8.027 0.002-16.115 0.004-24.142 0.006-2.001 0-4.001 0.001-6.094 0.001-32.392 0.008-64.845 0.095-97.237 0.127-33.274 0.094-66.608 0.112-99.882 0.115-18.656 0.002-37.372 0.011-56.028 0.097-15.896 0.022-31.852 0.030-47.748 0.020-8.119-0.005-16.237-0.003-24.356 0.017-7.471 0.018-14.881 0.017-22.352 0.001-3.904-0.003-7.87 0.013-11.774 0.030-22.718-0.142-44.102-5.478-64.349-15.769-1.97-0.991-1.97-0.991-3.899-1.992-13.65-7.274-24.228-17.104-34.886-28.147-1.274-1.243-2.609-2.486-3.903-3.748-7.749-7.881-12.871-16.893-17.899-26.638-0.626-1.155-1.253-2.371-1.889-3.606-14.89-30.255-14.498-60.514-14.362-93.597 0.011-6.972-0.001-13.884-0.010-20.856-0.014-13.596-0.006-27.131 0.009-40.727 0.017-15.853 0.014-31.644 0.010-47.497-0.006-28.257 0.008-56.513 0.094-84.77 0.024-27.372 0.031-54.744 0.021-82.116-0.011-29.873-0.013-59.746 0.001-89.618 0.002-3.219 0.003-6.378 0.005-9.597 0.001-1.596 0.002-3.132 0.002-4.753 0.005-11.006 0.003-22.012-0.001-33.019-0.005-13.406 0.001-26.872 0.021-40.278 0.010-6.859 0.015-13.656 0.007-20.515-0.102-50.747 4.761-91.779 40.986-130.351 37.486-37.119 78.606-44.102 129.356-44.023z"></path>
<path fill="#011b37" d="M224.488 101.597c2.633-0.003 5.266-0.006 7.899-0.009 7.22-0.008 14.378-0.010 21.598-0.011 7.766-0.002 15.593-0.009 23.358-0.016 16.99-0.014 33.981-0.020 50.971-0.024 10.621-0.003 21.242-0.007 31.864-0.012 29.47-0.012 58.88-0.022 88.35-0.026 1.878 0 3.756 0 5.724-0.001 1.88 0 3.76 0 5.731-0.001 3.846 0 7.632-0.001 11.478-0.001 1.885 0 3.77 0 5.745-0.001 30.721-0.004 61.381-0.021 92.102-0.106 31.597-0.024 63.133-0.097 94.73-0.098 17.726-0.001 35.39-0.007 53.116-0.025 15.098-0.015 30.135-0.020 45.233-0.012 7.652 0.004 15.365 0.003 23.017-0.011 56.14-0.219 103.012 3.872 145.369 44.027 29.114 30.775 40.736 68.742 40.732 110.235 0.004 2.263 0.007 4.527 0.011 6.886 0.009 6.272 0.014 12.604 0.016 18.876 0.004 6.774 0.013 13.609 0.022 20.383 0.020 16.39 0.030 32.78 0.1 49.232 0.004 7.745 0.010 15.49 0.015 23.235 0.017 25.754 0.093 51.508 0.1 77.261 0.002 6.652 0.004 13.364 0.006 20.016 0 1.643 0.001 3.346 0.001 5.015 0.008 26.86 0.095 53.72 0.127 80.519 0.094 27.618 0.112 55.235 0.115 82.853 0.002 15.491 0.011 30.982 0.097 46.473 0.022 13.221 0.030 26.381 0.020 39.602-0.005 6.733-0.003 13.405 0.017 20.138 0.256 54.993-6.855 98.62-46.016 139.502-23.988 22.977-56.609 36.993-89.868 37.022-2.364 0.004-4.728 0.009-7.129 0.014-2.596 0-5.132 0-7.768-0.001-2.76 0.003-5.521 0.007-8.281 0.011-7.614 0.010-15.228 0.014-22.781 0.016-8.227 0.004-16.392 0.013-24.619 0.022-19.78 0.020-39.622 0.030-59.402 0.1-9.355 0.004-18.649 0.010-28.004 0.015-31.024 0.017-62.109 0.093-93.133 0.1-8.027 0.002-16.115 0.004-24.142 0.006-2.001 0-4.001 0.001-6.094 0.001-32.392 0.008-64.845 0.095-97.237 0.127-33.274 0.094-66.608 0.112-99.882 0.115-18.656 0.002-37.372 0.011-56.028 0.097-15.896 0.022-31.852 0.030-47.748 0.020-8.119-0.005-16.237-0.003-24.356 0.017-7.471 0.018-14.881 0.017-22.352 0.001-3.904-0.003-7.87 0.013-11.774 0.030-22.718-0.142-44.102-5.478-64.349-15.769-1.97-0.991-1.97-0.991-3.899-1.992-13.65-7.274-24.228-17.104-34.886-28.147-1.274-1.243-2.609-2.486-3.903-3.748-7.749-7.881-12.871-16.893-17.899-26.638-0.626-1.155-1.253-2.371-1.889-3.606-14.89-30.255-14.498-60.514-14.362-93.597 0.011-6.972-0.001-13.884-0.010-20.856-0.014-13.596-0.006-27.131 0.009-40.727 0.017-15.853 0.014-31.644 0.010-47.497-0.006-28.257 0.008-56.513 0.094-84.77 0.024-27.372 0.031-54.744 0.021-82.116-0.011-29.873-0.013-59.746 0.001-89.618 0.002-3.219 0.003-6.378 0.005-9.597 0.001-1.596 0.002-3.132 0.002-4.753 0.005-11.006 0.003-22.012-0.001-33.019-0.005-13.406 0.001-26.872 0.021-40.278 0.010-6.859 0.015-13.656 0.007-20.515-0.102-50.747 4.761-91.779 40.986-130.351 37.486-37.119 78.606-44.102 129.356-44.023zM142.142 194.864c-11.898 15.655-19.029 31.515-19.105 51.478-0.004 1.896-0.008 3.853-0.012 5.778 0.001 2.107 0.002 4.153 0.003 6.353-0.003 2.241-0.006 4.481-0.009 6.756-0.009 7.497-0.010 14.995-0.012 22.492-0.004 5.371-0.010 10.742-0.015 16.113-0.014 14.61-0.020 29.221-0.024 43.77-0.003 9.123-0.007 18.246-0.012 27.369-0.012 25.262-0.022 50.524-0.026 75.846 0 1.621 0 3.242-0.001 4.888 0 1.623 0 3.246-0.001 4.894 0 3.268-0.001 6.596-0.001 9.864 0 1.627 0 3.254-0.001 4.907-0.004 26.374-0.021 52.747-0.106 79.121-0.024 27.113-0.097 54.225-0.098 81.277-0.001 15.227-0.007 30.394-0.025 45.621-0.015 12.977-0.020 25.892-0.012 38.868 0.004 6.613 0.001 13.225-0.011 19.777-0.013 7.153-0.007 14.366 0.004 21.519-0.008 2.028-0.016 4.117-0.024 6.238 0.137 22.479 3.753 42.988 18.359 60.594 1.002 1.247 2.005 2.494 3.023 3.76 10.377 11.612 24.741 18.507 39.9 21.623 3.724 0.154 7.39 0.253 11.117 0.256 3.397 0.007 3.397 0.007 6.891 0.014 2.503 0 5.006 0 7.609-0.001 2.657 0.003 5.375 0.007 8.032 0.011 7.384 0.010 14.769 0.014 22.153 0.016 7.985 0.004 15.971 0.013 23.895 0.022 19.254 0.020 38.508 0.030 57.761 0.1 9.098 0.004 18.135 0.010 27.233 0.015 30.146 0.017 60.354 0.093 90.5 0.1 7.851 0.002 15.641 0.004 23.492 0.006 1.972 0 3.883 0.001 5.886 0.001 31.5 0.008 63 0.095 94.501 0.127 32.364 0.094 64.728 0.112 97.031 0.115 18.143 0.002 36.347 0.011 54.49 0.097 15.485 0.022 30.969 0.030 46.393 0.020 7.881-0.005 15.762-0.003 23.643 0.017 7.243 0.018 14.485 0.017 21.727 0.001 3.85-0.003 7.638 0.013 11.488 0.030 22.868-0.145 43.388-4.512 60.969-19.884 19.144-20.114 22.515-40.006 22.406-66.844 0.004-2.267 0.008-4.594 0.012-6.896 0.008-6.271 0.008-12.603 0.004-18.875-0.002-6.777 0.007-13.614 0.014-20.391 0.013-13.28 0.015-26.621 0.012-39.901-0.002-10.847 0-21.634 0.004-32.481 0.001-2.282 0.001-2.282 0.002-4.65 0.001-3.129 0.002-6.259 0.004-9.388 0.011-29.367 0.009-58.734 0.003-88.101-0.005-26.856 0.006-53.65 0.025-80.506 0.019-27.604 0.028-55.147 0.024-82.752-0.002-15.487 0.001-30.975 0.015-46.401 0.012-13.15 0.013-26.36 0.001-39.509-0.006-6.732-0.007-13.403 0.005-20.136 0.010-7.272 0.002-14.604-0.010-21.876 0.007-2.115 0.015-4.229 0.022-6.376-0.146-23.274-6.521-41.228-22.258-58.482-21.269-20.613-46.502-21.382-74.527-21.372-2.627-0.003-5.255-0.006-7.882-0.009-7.227-0.008-14.394-0.010-21.621-0.011-7.765-0.002-15.53-0.009-23.356-0.016-17.001-0.014-34.001-0.020-51.002-0.024-10.623-0.003-21.247-0.007-31.87-0.012-29.401-0.012-58.864-0.022-88.265-0.026-2.848 0-2.848 0-5.726-0.001-1.881 0-3.762 0-5.733-0.001-3.848 0-7.635-0.001-11.484-0.001-1.886 0-3.772 0-5.748-0.001-30.734-0.004-61.406-0.021-92.14-0.106-31.531-0.024-63.124-0.097-94.655-0.098-17.73-0.001-35.399-0.007-53.129-0.025-15.103-0.015-30.145-0.021-45.248-0.012-7.719 0.004-15.376 0.003-23.095-0.011-7.027-0.013-14.114-0.011-21.141 0.001-3.741 0.003-7.481-0.009-11.221-0.021-26.269 0.138-50.984 5.14-69.228 25.396z"></path>
<path fill="#001a36" d="M669.222 259.611c1.993 0.002 3.986 0.004 6.010 0.006 3.101 0.018 3.101 0.018 6.234 0.098 2.103 0.001 4.145 0.001 6.28 0.002 15.382 0.106 15.382 0.106 17.621 2.345 0.278 2.621 0.494 5.25 0.621 7.878 0.103 1.602 0.145 3.143 0.249 4.769 0.1 1.643 0.14 3.347 0.241 5.016 0.104 1.647 0.147 3.355 0.253 5.028 0.228 4.129 0.39 8.259 0.612 12.389 2.396 0.758 4.854 1.516 7.349 2.347 34.86 11.728 63.362 26.595 81.514 59.856 8.864 18.636 10.754 31.99 10.754 53.101-22.53 0-45.121 0-68.367 0-2.601-7.742-5.141-15.484-7.843-23.468-9.098-14.989-19.982-22.886-36.747-27.977-20.24-4.13-39.646-2.027-57.262 9.121-9.224 7.221-14.377 15.116-15.888 26.985-0.473 10.388 0.845 20.020 6.388 28.988 18.615 19.761 49.97 24.774 75.222 31.25 68.134 17.395 68.134 17.395 88.871 41.008 0.979 1.011 1.897 2.023 2.891 3.111 17.387 19.103 21.604 40.257 21.133 65.65-1.747 21.142-7.251 41.013-20.134 58.154-1.638 2.248-1.638 2.248-3.354 4.52-17.476 21.633-41.235 30.745-66.989 38.403-5.873 1.897-11.738 3.878-17.601 5.867-0.025 1.119-0.111 2.239-0.137 3.375-0.238 5.010-0.483 10.020-0.728 15.029-0.1 1.752-0.14 3.504-0.241 5.344-0.103 1.647-0.145 3.355-0.249 5.028-0.098 1.523-0.134 3.107-0.233 4.653-0.388 3.627-0.388 3.627-2.364 5.603-4.013 0.222-8.029 0.253-12.105 0.255-2.476 0.001-4.89 0.003-7.404 0.004-1.267-0.002-2.595-0.004-3.882-0.006-3.899-0.005-7.859 0-11.758 0.006-3.652-0.002-3.652-0.002-7.404-0.004-2.259-0.001-4.519-0.002-6.875-0.003-5.23-0.251-5.23-0.251-7.145-2.227-0.278-2.755-0.495-5.518-0.621-8.28-0.103-1.647-0.145-3.355-0.249-5.028-0.1-1.752-0.14-3.504-0.241-5.344-0.104-1.756-0.147-3.511-0.253-5.355-0.228-4.37-0.391-8.74-0.612-13.11-6.243-2.128-12.485-4.124-18.779-5.971-30.020-8.632-57.985-21.226-74.971-48.747-9.264-17.719-16.873-34.36-15.625-54.718 1.976-1.976 1.976-1.976 8.474-2.151 2.879 0 5.758 0.006 8.636 0.016 1.507 0.001 3.015 0.003 4.607 0.004 4.865 0.006 9.73 0.018 14.596 0.031 3.268 0.005 6.596 0.010 9.864 0.014 8.096 0.011 16.131 0.028 24.227 0.11 0.75 1.607 1.5 3.153 2.261 4.846 1.007 2.11 2.013 4.22 3.096 6.363 0.996 2.099 1.991 4.136 3.002 6.267 8.978 15.882 23.359 24.388 40.492 29.399 21.65 5.105 45.149 2.503 64.353-9.141 10.131-7.52 16.64-15.105 18.528-27.849 0.391-10.155 0.26-19.869-5.751-28.398-18.626-18.898-49.102-23.486-73.979-29.227-36.25-8.374-78.349-18.127-99.494-51.631-14.009-25.093-18.346-58.233-10.491-86.123 0.641-1.981 0.641-1.981 1.351-3.983 0.489-1.526 0.978-3.113 1.474-4.724 9.265-26.614 30.001-45.103 54.754-57.115 11.344-5.274 22.26-9.6 34.619-11.531 2.396-0.4 2.396-0.4 4.879-0.865 3.111-6.222 2.721-12.979 3.027-19.763 0.126-2.229 0.126-2.229 0.253-4.481 0.228-3.632 0.39-7.264 0.612-10.897 7.125-3.253 12.644-4.383 20.488-4.365z"></path>
<path fill="#008688" d="M410.85 386.518c1.621-0.008 3.242-0.016 4.887-0.024 3.405-0.014 6.871-0.025 10.275-0.093 5.24-0.017 10.479-0.122 15.657-0.227 3.355-0.010 6.648-0.019 10.003-0.025 1.529-0.018 3.119-0.096 4.733-0.114 10.274 0.020 16.134 1.895 24.282 8.749 2.984 5.968 2.242 12.116 2.238 18.623 0.003 1.518 0.006 3.098 0.009 4.64 0.009 5.15 0.010 10.362 0.012 15.512 0.005 3.724 0.010 7.386 0.015 11.11 0.013 10.096 0.020 20.131 0.024 30.227 0.003 6.269 0.007 12.598 0.012 18.867 0.014 19.641 0.023 39.282 0.027 58.984 0.004 22.731 0.022 45.4 0.112 68.131 0.022 17.521 0.032 35.103 0.094 52.624 0.001 10.491 0.007 20.983 0.025 31.474 0.016 9.868 0.019 19.735 0.010 29.603-0.001 3.623 0.004 7.246 0.013 10.869 0.013 4.969 0.007 9.877-0.004 14.847 0.008 1.406 0.016 2.873 0.024 4.362-0.104 8.614-1.275 14.030-6.625 20.874-7.614 5.096-14.001 4.484-22.847 4.401-2.498 0.003-2.498 0.003-5.022 0.006-3.509 0.001-7.019-0.002-10.528-0.011-5.377-0.011-10.754 0-16.131 0.013-3.398-0.001-6.856-0.004-10.254-0.008-1.616 0.004-3.232 0.008-4.873 0.012-14.631-0.122-14.631-0.122-20.143-4.474-4.887-7.223-4.484-14.718-4.47-23.097-0.005-1.524-0.010-3.109-0.016-4.718-0.015-5.219-0.016-10.377-0.016-15.596-0.008-3.734-0.016-7.407-0.025-11.14-0.022-10.114-0.031-20.229-0.097-30.343-0.004-6.281-0.010-12.623-0.017-18.904-0.024-22.004-0.099-44.008-0.102-66.013-0.004-20.514-0.095-41.028-0.136-61.602-0.096-17.62-0.111-35.24-0.112-52.861-0.001-10.513-0.010-21.025-0.099-31.599-0.026-9.886-0.028-19.771-0.012-29.718 0.002-3.629-0.005-7.259-0.021-10.888-0.020-4.979-0.010-9.894 0.008-14.873-0.013-1.47-0.026-2.878-0.101-4.37 0.126-7.763 1.012-10.856 6.12-16.873 2.469-1.999 2.469-1.999 4.903-4.018 4.009-4.009 12.406-2.371 17.983-2.397z"></path>
<path fill="#008688" d="M251.146 492.002c2.499-0.012 2.499-0.012 5.023-0.024 3.517-0.014 7.095-0.025 10.612-0.093 5.384-0.017 10.768-0.122 16.152-0.227 3.404-0.010 6.868-0.019 10.272-0.025 1.617-0.018 3.234-0.096 4.876-0.114 7.872 0.015 11.734 0.353 18.514 4.637 6.121 6.395 6.119 10.117 6.137 18.77 0.007 2.272 0.014 4.604 0.022 6.972 0.003 2.514 0.005 5.028 0.008 7.642 0.006 2.652 0.013 5.366 0.020 8.018 0.017 7.269 0.028 14.6 0.097 21.87 0.005 4.527 0.011 9.115 0.018 13.641 0.019 14.245 0.094 28.49 0.103 42.735 0.010 16.471 0.097 32.881 0.138 49.352 0.030 12.727 0.106 25.394 0.109 38.121 0.002 7.607 0.011 15.153 0.097 22.761 0.023 7.134 0.028 14.267 0.017 21.401-0.001 3.871 0.018 7.743 0.099 11.614-0.007 2.28-0.014 4.621-0.021 6.998 0.002 2.001 0.005 4.002 0.007 6.096-1.237 6.897-3.988 10.223-8.765 15.238-10.024 5.012-25.869 2.637-37.022 2.747-3.722 0.022-7.384 0.117-11.106 0.225-5.353 0.128-10.643 0.155-15.997 0.236-2.484 0.103-2.484 0.103-4.994 0.145-1.526-0.003-3.113-0.006-4.724-0.008-2.016 0.015-2.016 0.015-4.114 0.031-5.26-1.848-8.518-4.527-11.893-8.984-4.472-9.397-3.344-20.25-3.241-30.474-0.007-2.653-0.016-5.367-0.027-8.020-0.023-7.253-0.014-14.505 0.002-21.758 0.013-7.613 0.001-15.226-0.007-22.778-0.009-12.756 0.003-25.512 0.027-38.268 0.027-14.749 0.018-29.497-0.009-44.245-0.023-12.65-0.026-25.36-0.013-38.009 0.008-7.594 0.009-15.126-0.008-22.72-0.014-7.118-0.004-14.234 0.024-21.352 0.010-3.862-0.005-7.723-0.021-11.524 0.237-18.777 0.237-18.777 6.145-24.849 1.625-1.12 3.251-2.24 4.901-3.377 4.099-4.099 12.857-2.372 18.481-2.397z"></path>
</svg>
